<?xml version="1.0" encoding="utf-8"?>
<!-- Generator: Adobe Illustrator 25.3.0, SVG Export Plug-In . SVG Version: 6.00 Build 0)  -->
<svg version="1.1" id="visual" xmlns="http://www.w3.org/2000/svg" xmlns:xlink="http://www.w3.org/1999/xlink" x="0px" y="0px"
	 viewBox="0 0 900 600" style="enable-background:new 0 0 900 600;" xml:space="preserve">
<style type="text/css">
	.st0{fill:none;}
	.st1{fill:none;stroke:#231F20;stroke-width:0.3;}
	.st2{opacity:0.82;fill:#F7770F;}
	.st3{opacity:0.7;fill:#489BFF;}
	.st4{fill:#00DBFF;}
	.st5{fill:url(#Mezzotint_Irregular);stroke:#FFFFFF;stroke-miterlimit:10;}
	.st6{opacity:0.36;fill:#F7770F;}
	.st7{opacity:0.31;fill:#489BFF;}
	.st8{opacity:0.51;fill:#00DBFF;}
</style>
<pattern  y="600" width="72" height="72" patternUnits="userSpaceOnUse" id="Mezzotint_Irregular" viewBox="51.7 -85.5 72 72" style="overflow:visible;">
	<g>
		<rect x="51.7" y="-85.5" class="st0" width="72" height="72"/>
		<g>
			<path class="st1" d="M119.9-10c2.2-0.5,7,0,6,1.8s4,7,4.5,5.5s-2-4.5,0.8-4.8s5.8,3,7.5,3.2s5.5-1.5,3.2-3s-2.8-4.5-5.5-4.3
				s-7-0.2-6-3"/>
			<path class="st1" d="M120.9-12.5c1.8,0.5,5.5,0.2,6,1.8s2.7,2.8,2.7,1.5s-1.7-2.8-1.7-2.8s-4-3.5-2-4"/>
			<path class="st1" d="M122.7-5.2c1.5,1.5,3.5,2.7,5.5,3.8c2,1,5,2,5.2,0.8c0.2-1.3-2.8-3.3-1-3.3s3.2,2,6.5,1.8s9.2-4,7.2-4.8
				s-3.8-3.5-5.5-4.5s-2.8-1-4-1s-4-1.2-2-2"/>
		</g>
		<g>
			<path class="st1" d="M47.9-10c2.2-0.5,7,0,6,1.8s4,7,4.5,5.5s-2-4.5,0.8-4.8s5.8,3,7.5,3.2s5.5-1.5,3.2-3s-2.8-4.5-5.5-4.3
				s-7-0.2-6-3"/>
			<path class="st1" d="M75.4-14.5c1.2,0.5,4.2,3,3.2,4.8s-0.5,3.3,1,3.5s6.2-2,5.8-3.3s-1.8-3.2,0-4.5"/>
			<path class="st1" d="M97.4-16.7c1.8,1,1.8,2,0.5,3.2s-6.5,1.2-5.8,2.5s5,4,7.8,4s3-3.5,4.8-4"/>
			<path class="st1" d="M105.7-12.2c0.8-0.5,0.8-1,0.5-3"/>
			<path class="st1" d="M107.9-19.2c0,1.5-0.4,5.6-0.4,6.9c0,1.4,0.5,1.9,0.5,1.9"/>
			<path class="st1" d="M48.9-12.5c1.8,0.5,5.5,0.2,6,1.8s2.8,2.8,2.8,1.5S55.9-12,55.9-12s-4-3.5-2-4"/>
			<path class="st1" d="M77.7-15.2c1.8,0.5,3.8,1,3.5,2.8s0.2,4,0.8,2.8s0-4,1.5-5"/>
			<path class="st1" d="M100.4-20c1.2,2.2,1.5,6.2-0.2,7.5s-3,3-1.5,2.8s4-0.8,4.8-3s2.2-8.8,0.8-9.5"/>
			<path class="st1" d="M109.7-20c-1,1.5-1,4.5,0.2,5.8s2.5,0.8,2.8,2.2s1.5,3.2,2.5,3.2s2.5-2,3.2-2.8c1-1,2.5-1,2.5-1
				c1.8,0.5,5.5,0.2,6,1.8"/>
			<path class="st1" d="M50.7-5.2c1.5,1.5,3.5,2.7,5.5,3.8c2,1,5,2,5.2,0.8C61.7-2,58.7-4,60.4-4s3.2,2,6.5,1.8s9.2-4,7.2-4.8
				s-3.8-3.5-5.5-4.5s-2.8-1-4-1s-4-1.2-2-2"/>
			<path class="st1" d="M73.9-14c1,2,2.2,3.2,2.5,5s-0.5,4.8,2,4.8c0.6,0,1.3,0,2-0.2"/>
			<path class="st1" d="M82.5-4.9c1.4-0.5,2.7-1.2,3.7-2.3c2-2.3,0.2-2.8,0.5-4s6-4,7-3.2s-1.2,0-2.2,1.8s-4.2,6.3,1,6.5
				S98.7-5,98.9-4s5,0.8,5-0.5s1.5-6,2-4.8s2,3.5,5,5"/>
			<path class="st1" d="M112.9-14.7c1.2,1.2,1.5,3.8,2.8,3s2.8-2.2,3.5-2.8"/>
		</g>
		<g>
			<path class="st1" d="M37.7-20c-1,1.5-1,4.5,0.2,5.8s2.5,0.8,2.8,2.2s1.5,3.2,2.5,3.2s2.5-2,3.2-2.8c1-1,2.5-1,2.5-1
				c1.8,0.5,5.5,0.2,6,1.8"/>
		</g>
		<g>
			<path class="st1" d="M118.4-16.7c3.9-2.4,6-7,10.5-8.5c-0.2,1.1-0.1,2.3,0.6,2.8c1.2,0.9,2.4,0.6,3.9,0.2c1-3.2,3.1-7.3,7-6.4
				c1.4,0.3,1.3,2,2.1,2.8c0.9,0.8,2.2,1.7,3.3,1c1.2-0.8,2.4-1.2,3.6-1.8c0.7-0.3,0.2-1.3,1-1.6c1.9-0.6,2.2,1.4,3.5,2
				c-0.1,1.9,0,3.7,0.5,5.5c0.7,2.3,3.4,1.6,5,0.5c-0.3-0.3,0.6-1.8,0.5-3.4c0.5-3.7-1.7-6.9,2.1-8.4c3.7-1.4,7.9-0.4,11.9-1
				c1.2-0.2,2.4-0.4,3.4-1c1.4-0.8,2.6-1.9,4.1-2.3c0.2,0.8,1.4,0.2,1.5,1c0.2,2.2,1.7,3.7,2.8,5.4c0.2,0.3,0.5,1.1,1.2,1.4
				c0.9,0.4,0.7,2.1,1.1,3.3"/>
			<path class="st1" d="M121.1-23.1c1.5-0.7,3.1-1.2,4.5-2.2c0.1-0.9,0.8-1.4,1-2.2c0-0.2,0.4-0.3,0.4-0.3c0.7-1.6,2.3-2.4,3.8-1.7
				c0.4,0.2,0.2,0.9,0.8,0.7c0,0.3,0.1,0.6,0,0.7c-1.3,0.9-1.3,2.4-1.1,3.5c0.2,0.8,1.1,1.6,2.1,0.8c-0.2-2.8,1.1-5.3,3.3-6.9
				c1.2-0.9,2.7-0.7,4.2-0.6c-0.1,0.6,0.4,0.1,0.5,0.2"/>
			<path class="st1" d="M121.4-26.7c1.8-0.2,3.8-2.5,5.2-4c1.5-1.5,3-2.5,4.5-2.2s1,3.2,3.2,0.2s3.8-2,5.2-1.8s5,2,6.2,0.5
				s-2-6,0.2-6.2s3.2,3.2,5.2,4.5s3,2.8,4.2,0.8s3.2-3.8,5.5-3s3,0.8,5,0.8"/>
			<path class="st1" d="M140.9-43.6c-1,0.1-1.9,0.1-2.8,0.1c-3.5,0-4,2.5-1.5,3s4.5,2.5,6.5,4s-1.5,1-3.5,0s-3,0-5.5,2s-1.5-0.5-3-1
				s-3,0.5-4.5,2c-1.5,1.5-3.5,0.5-7.5-0.5"/>
			<path class="st1" d="M120.4-37.2c1.5,0.8,3.2,2.2,5.2,1.2s3.2-2.5,4.5-2s2.5,2.2,4,1.2s3.2-0.8,1.5-2.5s-5.2-3-4-4
				s3.8-3.2,6.5-3.2s15-2.2,14.5,0.2s-1.8,8.2,0,7.2s3.2-2.8,4.8-2.8s2.8-0.2,3.2-2.8s3-3.8,4-2.8s2.5,2.2,2.2,0.5s0.5-4.5,4-4.2
				c0.5,0,1.1,0.1,1.7,0.1"/>
			<path class="st1" d="M120.9-16.2c1-1.2,2.8-3,4.5-4.8s2.7-1.2,3,0.2s0.8,2.5,2.2,2.2s5.5-3,6-5.2s1.8-3.8,3-2.8s2,4,4.2,4
				s7.5-4.8,7.8-3s-0.5,4,0.2,6.5s2.5,2.5,5,1.5s4.5-2,4.8-3.5"/>
			<path class="st1" d="M119.9-82c2.2-0.5,7,0,6,1.8s4,7,4.5,5.5s-2-4.5,0.8-4.8s5.8,3,7.5,3.2s5.5-1.5,3.2-3s-2.8-4.5-5.5-4.2
				s-7-0.2-6-3"/>
			<path class="st1" d="M122.2-40.7c1.8,1,2,2,4,1.2c2-0.8,2.5-1,2.5-1c2,1,3.5,1.5,3.2,0.5c-0.9-3.4-5.8-3-5-4.2
				c1.2-2,5.2-2.2,6.7-4.2s-0.5-3.8,1.8-4.8s5.5,1,6.2,2.2s4.5,2.2,7.5,1.5s7.2-2,6.8,0.5s-1.2,5.8,0.2,4.5s5.2-8.5,7.5-8.2
				s3.2,0,6.2-0.2s9.5,0.5,9.2-2s-4.8-8.2-1-8.2c1.7,0,3.6,0.6,5.2,1.5"/>
			<path class="st1" d="M120.9-84.5c1.8,0.5,5.5,0.2,6,1.8s2.7,2.8,2.7,1.5s-1.7-2.8-1.7-2.8s-4-3.5-2-4"/>
			<path class="st1" d="M121.2-49.5c1.2,0.5,3.2,2.2,4,1.2s-8-3-0.5-4.8c7.5-1.8,6.2-1,7.2-3.5s-6.5-3.2-4.5-4.5
				c2-1.2,9.3-3,11.7-1.8c3,1.5,1.5,3.8,1.8,4.5s-1,4.8,2.5,6s5,2.5,8,0.8s7-3.2,7-2s-0.2,2,2.5,0.2s7.2-3.2,9.8-3s5-0.5,4-2.2
				s-3.8-2.8-5-4.8s0.8-3.2,3.2-3.5s12,0.8,13.8,2.2s2.2,5.5,2.2,8s-1,3.2,1.8,5.2"/>
			<path class="st1" d="M121.4-55.5c2.2,0.5,4.2,0,5.2-0.5s-2.5-3-4.8-3.8"/>
			<path class="st1" d="M121.9-64.7c3.8-0.5,7.2-1.5,9.7-1s7.8-0.5,9.8,3"/>
			<path class="st1" d="M122.2-68.7c3.5,0.5,10.7,2,12.5,2c0.6,0,1.8,0,3.2,0.1"/>
			<path class="st1" d="M122.7-77.2c1.5,1.5,3.5,2.8,5.5,3.8c2,1,5,2,5.2,0.8s-2.8-3.2-1-3.2s3.2,2,6.5,1.8s9.2-4,7.2-4.8
				s-3.8-3.5-5.5-4.5s-2.8-1-4-1s-4-1.2-2-2"/>
			<path class="st1" d="M122.2-71.2c1.8,0.5,10.2,2.8,14.2,2.5s10.8-0.5,11.8,0.2s0.2,2,0.5,3.2s1,2.2,2.2,1s3.8-2,5-1.5
				s3.5,1.2,3.2,0s-2.8-3.2-1.5-5.5s7-6.5,6.5-4.2s-1.2,5.2,0.5,4.5s5-2,8-1.5"/>
			<path class="st1" d="M122.4-74c3,1.5,9.5,4,16,3.8s6.2-1.8,4.8-1.8s0.2-2.5,2.2-2.5s4.5,1.5,4.8,3.2s1,3,2.2,2.8s1-1,2.8-4
				s2.5-3,4-4.8s1.5,0,2.2,0.2s6.2-0.8,6.2,0.5s-3.8,3-2,3s9.8-1.5,11.5-0.8"/>
		</g>
		<g>
			<path class="st1" d="M46.4-16.7c3.9-2.4,6-7,10.5-8.5c-0.2,1.1-0.1,2.3,0.6,2.8c1.2,0.9,2.4,0.6,3.9,0.2c1-3.2,3.1-7.3,7-6.4
				c1.4,0.3,1.3,2,2.1,2.8c0.9,0.8,2.2,1.7,3.3,1c1.2-0.8,2.4-1.2,3.6-1.8c0.7-0.3,0.2-1.3,1-1.6c1.9-0.6,2.2,1.4,3.5,2
				c-0.1,1.9,0,3.7,0.5,5.5c0.7,2.3,3.4,1.6,5,0.5c-0.3-0.3,0.6-1.8,0.5-3.4c0.5-3.7-1.7-6.9,2.1-8.4c3.7-1.4,7.9-0.4,11.9-1
				c1.2-0.2,2.4-0.4,3.4-1c1.4-0.8,2.6-1.9,4.1-2.3c0.2,0.8,1.4,0.2,1.5,1c0.2,2.2,1.7,3.7,2.8,5.4c0.2,0.3,0.5,1.1,1.2,1.4
				c0.9,0.4,0.7,2.1,1.1,3.3"/>
			<path class="st1" d="M128.9-25.2c-4.5,1.5-6.6,6.1-10.5,8.5c-1.5,1-2.6,1.1-3.9,0.8c-1.2-0.3-0.4-2.1-0.5-3.3
				c-0.2-1.5,1.6-0.9,2.2-1.9c0.6-1,0.8-1.5,0.6-2.7"/>
			<path class="st1" d="M49.1-23.1c1.5-0.7,3.1-1.2,4.5-2.2c0.1-0.9,0.8-1.4,1-2.2c0-0.2,0.4-0.3,0.4-0.3c0.7-1.6,2.3-2.4,3.8-1.7
				c0.4,0.2,0.2,0.9,0.8,0.7c0,0.3,0.1,0.6,0,0.7c-1.3,0.9-1.3,2.4-1.1,3.5c0.2,0.8,1.1,1.6,2.1,0.8c-0.2-2.8,1.1-5.3,3.3-6.9
				c1.2-0.9,2.7-0.7,4.2-0.6c-0.1,0.6,0.4,0.1,0.5,0.2"/>
			<path class="st1" d="M121.1-23.1c1.5-0.7,3.1-1.2,4.5-2.2"/>
			<path class="st1" d="M120.1-21.6c-0.8,0.5-1.1,1.4-1.6,2.2c-0.1,0.2-0.5,0.2-0.4,0.6c-0.5-0.1-1,0.4-1.5,0.2
				c-0.3-0.1-0.4-0.5-0.2-0.7c0.4-0.3,0.3-0.9,0.5-0.9c0.7-0.2,0.3-1.1,1-1.1c0.4-1.5,0.5-3,0.1-4.5c-0.5-1.9-1.6-3.5-2.4-5.3"/>
			<path class="st1" d="M114.7-32.5c-1.8-2.2-3-3.5-3.2-4.8s-0.5-2.2-1.8-2.2s-2.2,1.5-4.2,2.5s-9.2,2.2-11.2,2s-6-1-7-0.2
				S85.4-31,85.4-29s0.2,4.8,0,5.8s-1.8,2.8-2-0.5s-0.5-4.8-2.2-6.5s-4.8-2.7-5-1.5c-0.2,1.2,0.8,2.2,0.2,2.8s-2.2,1.2-3.2,1
				s-1.5-1-2.2-1.5"/>
			<path class="st1" d="M49.4-26.7c1.8-0.2,3.8-2.5,5.2-4c1.5-1.5,3-2.5,4.5-2.2s1,3.2,3.2,0.2s3.8-2,5.2-1.8s5,2,6.2,0.5
				s-2-6,0.2-6.2s3.2,3.2,5.2,4.5s3,2.8,4.2,0.8s3.2-3.8,5.5-3s3,0.8,5,0.8"/>
			<path class="st1" d="M97.4-37.5c1.5-0.2,6.2-1,7.5-2.2s-1.8-5-0.2-5.5s5.5,0.2,7,1.5s2.8,5,3.2,7.2s3.8,4.7,4.2,6.5s0,4.5,0.5,5
				s1-1.5,1.8-1.8c1.7-0.6,3.8-2.5,5.2-4"/>
			<path class="st1" d="M126.7-33.5c-1.5,1.5-3.5,0.5-7.5-0.5c0,0-2.2-1-2.5-6.5s-3.8-6.8-6.2-7.5s-12.8-2-13.5-0.5s3.8,3.5,4.5,5
				s-0.2,3.8-2,3.5s-1.8-2.8-3.2-3.5s-5.5-1-5.8,1.2S86.2-40,86.2-40c-2.5-0.5-3,4-5,4s-2.5-4.5-4.5-6.5c-1-1-2.8-1.2-4.7-1.2"/>
			<path class="st1" d="M68.9-43.6c-1,0.1-1.9,0.1-2.8,0.1c-3.5,0-4,2.5-1.5,3s4.5,2.5,6.5,4s-1.5,1-3.5,0s-3,0-5.5,2s-1.5-0.5-3-1
				s-3,0.5-4.5,2C53.2-32,51.2-33,47.2-34"/>
			<path class="st1" d="M48.4-37.2c1.5,0.8,3.2,2.2,5.2,1.2s3.2-2.5,4.5-2s2.5,2.2,4,1.2s3.2-0.8,1.5-2.5s-5.2-3-4-4
				s3.8-3.2,6.5-3.2s15-2.2,14.5,0.2s-1.8,8.2,0,7.2s3.2-2.8,4.8-2.8s2.8-0.2,3.2-2.8s3-3.8,4-2.8s2.5,2.2,2.2,0.5s0.5-4.5,4-4.2
				c0.5,0,1.1,0.1,1.7,0.1"/>
			<path class="st1" d="M102.7-50.7c4.2,0.4,9.7,1.2,11.8,2.4c2.8,1.8,4.5,6,4.8,8.5"/>
			<path class="st1" d="M120.4-37.2c1.5,0.8,3.2,2.2,5.2,1.2"/>
			<path class="st1" d="M64.4-11.5c-2.8,0.2-7-0.2-6-3s7.5-4.5,8.2-6s2.8-1.8,3.8,0.2s3.8,5.2,5,5.8s4.2,3,3.2,4.8"/>
			<path class="st1" d="M85.4-9.5c-0.5-1.2-1.8-3.2,0-4.5s10.2-3.8,12-2.8s1.8,2,0.5,3.2s-6.5,1.2-5.8,2.5"/>
			<path class="st1" d="M48.9-16.2c1-1.2,2.8-3,4.5-4.8s2.8-1.2,3,0.2s0.8,2.5,2.2,2.2s5.5-3,6-5.2s1.8-3.8,3-2.8s2,4,4.2,4
				s7.5-4.8,7.8-3s-0.5,4,0.2,6.5s2.5,2.5,5,1.5s4.5-2,4.8-3.5"/>
			<path class="st1" d="M120.9-16.2c1-1.2,2.8-3,4.5-4.8"/>
			<path class="st1" d="M55.9-12c0,0-4-3.5-2-4s4,0,6-1.2s5.2-3.2,6-4.8s1.8-2.5,2.5-1.5s2,2,3.8,2.5s3-1,3.8,0.8s0,4.5,1.8,5
				s3.8,1,3.5,2.8"/>
			<path class="st1" d="M81.9-9.7c0.5-1.2,0-4,1.5-5s6.2-2.8,7-4c0.7-1.2,3.9-1.9,6-2"/>
			<path class="st1" d="M98.2-20.7c0.2,0.2,1.9,0.2,2.2,0.8c1.2,2.2,1.5,6.2-0.2,7.5"/>
			<path class="st1" d="M103.4-12.7c0.8-2.2,2.2-8.8,0.8-9.5s-4.8-1.5-2.8-3.5s5.8-3.8,6.8-3.2s4.5,3.5,3.8,5.2s-1.2,2.2-2.2,3.8
				s-1,4.5,0.2,5.8s2.5,0.8,2.8,2.2"/>
			<path class="st1" d="M89.9-22.7c0-1.2-0.5-2.5,0.2-4.5s2.8-3,3-1.5s-1.5,4.8,0,5s2.5,0.5,3.2-1s-1.2-3.2,0-4.2s6.2-2.8,7.8-2.2
				s2.8-0.2,3.8-0.5"/>
			<path class="st1" d="M109.7-31.7c1-0.2,2.2,1.5,2.5,3s2.2,2.8,2.5,3.8s-2.2,5-2.8,6.2s-0.2,2.8,1,4s1.5,3.8,2.8,3
				s2.8-2.2,3.5-2.8"/>
			<path class="st1" d="M105.7-12.2c0.8-0.5,0.8-1,0.5-3s0.8-6.8,0-7.8s-1.5-3,0-2.5c0.8,0.3,2.5-0.1,2.8,1.4c0.2,1.2-1,4.2-1,4.9
				c0,1.5-0.4,5.6-0.4,6.9"/>
			<path class="st1" d="M47.9-82c2.2-0.5,7,0,6,1.8s4,7,4.5,5.5s-2-4.5,0.8-4.8s5.8,3,7.5,3.2s5.5-1.5,3.2-3s-2.8-4.5-5.5-4.2
				s-7-0.2-6-3"/>
			<path class="st1" d="M75.4-86.5c1.2,0.5,4.2,3,3.2,4.8s-0.5,3.2,1,3.5s6.2-2,5.8-3.2s-1.8-3.2,0-4.5"/>
			<path class="st1" d="M97.4-88.7c1.8,1,1.8,2,0.5,3.2s-6.5,1.2-5.8,2.5s5,4,7.8,4s3-3.5,4.8-4"/>
			<path class="st1" d="M105.7-84.2c0.8-0.5,0.8-1,0.5-3"/>
			<path class="st1" d="M107.9-91.2c0,1.5-0.4,5.6-0.4,6.9c0,1.4,0.5,1.9,0.5,1.9"/>
			<path class="st1" d="M50.2-40.7c1.8,1,2,2,4,1.2s2.5-1,2.5-1c2,1,3.5,1.5,3.2,0.5c-0.9-3.4-5.8-3-5-4.2c1.2-2,5.2-2.2,6.8-4.2
				s-0.5-3.8,1.8-4.8s5.5,1,6.2,2.2s4.5,2.2,7.5,1.5s7.2-2,6.8,0.5s-1.2,5.8,0.2,4.5s5.2-8.5,7.5-8.2s3.2,0,6.2-0.2s9.5,0.5,9.2-2
				s-4.8-8.2-1-8.2c1.7,0,3.6,0.6,5.2,1.5"/>
			<path class="st1" d="M114.1-59.4c0.6,0.8,1,1.6,1.1,2.5c0.5,3.5,0.2,5.8,2.2,7"/>
			<path class="st1" d="M122.2-40.7c1.8,1,2,2,4,1.2"/>
			<path class="st1" d="M118.7-49.2c1,1,2,3,2,4s-0.5,2.2,0.2,3.2"/>
			<path class="st1" d="M48.9-84.5c1.8,0.5,5.5,0.2,6,1.8s2.8,2.8,2.8,1.5S55.9-84,55.9-84s-4-3.5-2-4"/>
			<path class="st1" d="M77.7-87.2c1.8,0.5,3.8,1,3.5,2.8s0.2,4,0.8,2.8s0-4,1.5-5"/>
			<path class="st1" d="M100.4-92c1.2,2.2,1.5,6.2-0.2,7.5s-3,3-1.5,2.8s4-0.8,4.8-3s2.2-8.8,0.8-9.5"/>
			<path class="st1" d="M109.7-92c-1,1.5-1,4.5,0.2,5.8s2.5,0.8,2.8,2.2s1.5,3.2,2.5,3.2s2.5-2,3.2-2.8c1-1,2.5-1,2.5-1
				c1.8,0.5,5.5,0.2,6,1.8"/>
			<path class="st1" d="M49.2-49.5c1.2,0.5,3.2,2.2,4,1.2s-8-3-0.5-4.8s6.2-1,7.2-3.5s-6.5-3.2-4.5-4.5s9.3-3,11.8-1.8
				c3,1.5,1.5,3.8,1.8,4.5s-1,4.8,2.5,6s5,2.5,8,0.8s7-3.2,7-2s-0.2,2,2.5,0.2s7.2-3.2,9.8-3s5-0.5,4-2.2s-3.8-2.8-5-4.8
				s0.8-3.2,3.2-3.5s12,0.8,13.8,2.2s2.2,5.5,2.2,8s-1,3.2,1.8,5.2"/>
			<path class="st1" d="M121.2-49.5c1.2,0.5,3.2,2.2,4,1.2s-8-3-0.5-4.8"/>
			<path class="st1" d="M49.4-55.5c2.2,0.5,4.2,0,5.2-0.5s-2.5-3-4.8-3.8"/>
			<path class="st1" d="M49.9-64.7c3.8-0.5,7.2-1.5,9.8-1s7.8-0.5,9.8,3"/>
			<path class="st1" d="M121.4-55.5c2.2,0.5,4.2,0,5.2-0.5s-2.5-3-4.8-3.8s-3.8-4.5,0-5s7.2-1.5,9.7-1"/>
			<path class="st1" d="M120.2-55.7c-1.2-0.8-2-2.2-2-4s-2-7.5-5-7.8s-20.2-2-20.8,0.2s3.2,4.5,4,5.5s0.5,3.2-0.8,3.5s-4,1-3.8-0.5
				s-1-3.2-2.5-1.5c-0.8,0.9-2.7,1.5-3.8,2.2"/>
			<path class="st1" d="M83.9-56.7c-1.8,1.8-4.8,3-6.8,3s-6.2-0.5-6-2.8s0.2-3.2-0.2-4.2"/>
			<path class="st1" d="M50.2-68.7c3.5,0.5,10.8,2,12.5,2c0.6,0,1.8,0,3.2,0.1"/>
			<path class="st1" d="M69.9-66.4c2,0.2,3.7,0.7,4.3,1.4c1.2,1.8-0.2,4.8-0.8,6.2s-1,2.8,0.5,2.8s6.8,0.2,6-1.2s-3.2-2.2-2.5-3.8
				s7-2.5,8.2-2.2s3.8,1.2,4.8,0.2s-0.8-1.5-0.2-3.5"/>
			<path class="st1" d="M122.2-68.7c3.5,0.5,10.7,2,12.5,2"/>
			<path class="st1" d="M91.2-68c2-1,3.2-2.2,7.8-2s17.5,1.2,18,2.2s2,1.8,2.5,0.5s1.2-1.5,1.2-1.5"/>
			<path class="st1" d="M50.7-77.2c1.5,1.5,3.5,2.8,5.5,3.8s5,2,5.2,0.8s-2.8-3.2-1-3.2s3.2,2,6.5,1.8s9.2-4,7.2-4.8
				s-3.8-3.5-5.5-4.5s-2.8-1-4-1s-4-1.2-2-2"/>
			<path class="st1" d="M73.9-86c1,2,2.2,3.2,2.5,5s-0.5,4.8,2,4.8c0.6,0,1.3,0,2-0.2"/>
			<path class="st1" d="M82.5-76.9c1.4-0.5,2.7-1.2,3.7-2.3c2-2.2,0.2-2.8,0.5-4s6-4,7-3.2s-1.2,0-2.2,1.8s-4.2,6.2,1,6.5
				s6.2,1.2,6.5,2.2s5,0.8,5-0.5s1.5-6,2-4.8s2,3.5,5,5"/>
			<path class="st1" d="M122.7-77.2c1.5,1.5,3.5,2.8,5.5,3.8"/>
			<path class="st1" d="M119.9-82c2.2-0.5,7,0,6,1.8"/>
			<path class="st1" d="M109.7-81.5c0.8,1,3.2,2.2,4,3.2s2.2,2.5,3,0.8s-0.2-3.5,1.5-4"/>
			<path class="st1" d="M121.9-78c-1.5-1.5-3.2-2.2-3.2-1.2s2.8,1.8,1.8,3.2s-5,2.5-6.5,1.8s-1.8-1.2-1.8-1.2"/>
			<path class="st1" d="M50.2-71.2c1.8,0.5,10.2,2.8,14.2,2.5s10.8-0.5,11.8,0.2s0.2,2,0.5,3.2s1,2.2,2.2,1s3.8-2,5-1.5
				s3.5,1.2,3.2,0s-2.8-3.2-1.5-5.5s7-6.5,6.5-4.2s-1.2,5.2,0.5,4.5s5-2,8-1.5"/>
			<path class="st1" d="M122.2-71.2c1.8,0.5,10.2,2.8,14.2,2.5"/>
			<path class="st1" d="M120.4-71.5c-1.5-0.5-3.6-0.2-3.2,1c0.8,2.5-3.2-0.2-6-0.8s-6-0.8-7-0.8"/>
			<path class="st1" d="M50.4-74c3,1.5,9.5,4,16,3.8s6.2-1.8,4.8-1.8s0.2-2.5,2.2-2.5s4.5,1.5,4.8,3.2s1,3,2.2,2.8s1-1,2.8-4
				s2.5-3,4-4.8s1.5,0,2.2,0.2s6.2-0.8,6.2,0.5s-3.8,3-2,3s9.8-1.5,11.5-0.8"/>
			<path class="st1" d="M122.4-74c3,1.5,9.5,4,16,3.8"/>
			<path class="st1" d="M121.9-74.2c-2-0.9-4.2,2.2-7,1.8s-4.8-1-6.2-1.2s-2.2-0.2-2.2-0.2"/>
			<path class="st1" d="M64.7-12.5c-1.2,0-4-1.2-2-2c2.8-2,9.5-2.2,11.2,0.5c1,2,2.2,3.2,2.5,5"/>
			<path class="st1" d="M86.7-11.2c0.2-1.2,6-4,7-3.2s-1.2,0-2.2,1.8"/>
			<path class="st1" d="M112.9-86.7c1.2,1.2,1.5,3.8,2.8,3s2.8-2.2,3.5-2.8"/>
		</g>
		<g>
			<path class="st1" d="M56.9-25.2c-4.5,1.5-6.6,6.1-10.5,8.5c-1.5,1-2.6,1.1-3.9,0.8c-1.2-0.3-0.4-2.1-0.5-3.3
				c-0.2-1.5,1.6-0.9,2.2-1.9c0.6-1,0.8-1.5,0.6-2.7"/>
			<path class="st1" d="M49.1-23.1c1.5-0.7,3.1-1.2,4.5-2.2"/>
			<path class="st1" d="M25.4-37.5c1.5-0.2,6.2-1,7.5-2.2s-1.8-5-0.2-5.5s5.5,0.2,7,1.5s2.8,5,3.2,7.2s3.8,4.7,4.2,6.5s0,4.5,0.5,5
				s1-1.5,1.8-1.8c1.7-0.6,3.8-2.5,5.2-4"/>
			<path class="st1" d="M54.7-33.5C53.2-32,51.2-33,47.2-34c0,0-2.2-1-2.5-6.5s-3.8-6.8-6.2-7.5s-12.8-2-13.5-0.5s3.8,3.5,4.5,5
				s-0.2,3.8-2,3.5s-1.8-2.8-3.2-3.5s-5.5-1-5.8,1.2S14.2-40,14.2-40c-2.5-0.5-3,4-5,4c-2,0-2.5-4.5-4.5-6.5c-1-1-2.8-1.2-4.7-1.2"
				/>
			<path class="st1" d="M48.4-37.2c1.5,0.8,3.2,2.2,5.2,1.2"/>
			<path class="st1" d="M48.9-16.2c1-1.2,2.8-3,4.5-4.8"/>
			<path class="st1" d="M50.2-40.7c1.8,1,2,2,4,1.2"/>
			<path class="st1" d="M37.7-92c-1,1.5-1,4.5,0.2,5.8s2.5,0.8,2.8,2.2s1.5,3.2,2.5,3.2s2.5-2,3.2-2.8c1-1,2.5-1,2.5-1
				c1.8,0.5,5.5,0.2,6,1.8"/>
			<path class="st1" d="M49.2-49.5c1.2,0.5,3.2,2.2,4,1.2s-8-3-0.5-4.8"/>
			<path class="st1" d="M49.4-55.5c2.2,0.5,4.2,0,5.2-0.5s-2.5-3-4.8-3.8s-3.8-4.5,0-5s7.2-1.5,9.8-1"/>
			<path class="st1" d="M50.2-68.7c3.5,0.5,10.8,2,12.5,2"/>
			<path class="st1" d="M50.7-77.2c1.5,1.5,3.5,2.8,5.5,3.8"/>
			<path class="st1" d="M47.9-82c2.2-0.5,7,0,6,1.8"/>
			<path class="st1" d="M50.2-71.2c1.8,0.5,10.2,2.8,14.2,2.5"/>
			<path class="st1" d="M50.4-74c3,1.5,9.5,4,16,3.8"/>
		</g>
		<g>
			<path class="st1" d="M64.4-83.5c-2.8,0.2-7-0.2-6-3s7.5-4.5,8.2-6s2.8-1.8,3.8,0.2s3.8,5.2,5,5.8s4.2,3,3.2,4.8"/>
			<path class="st1" d="M85.4-81.5c-0.5-1.2-1.8-3.2,0-4.5s10.2-3.8,12-2.8s1.8,2,0.5,3.2s-6.5,1.2-5.8,2.5"/>
			<path class="st1" d="M55.9-84c0,0-4-3.5-2-4s4,0,6-1.2s5.2-3.2,6-4.8s1.8-2.5,2.5-1.5s2,2,3.8,2.5s3-1,3.8,0.8s0,4.5,1.8,5
				s3.8,1,3.5,2.8"/>
			<path class="st1" d="M81.9-81.7c0.5-1.2,0-4,1.5-5s6.2-2.8,7-4c0.7-1.2,3.9-1.9,6-2"/>
			<path class="st1" d="M98.2-92.7c0.2,0.2,1.9,0.2,2.2,0.8c1.2,2.2,1.5,6.2-0.2,7.5"/>
			<path class="st1" d="M103.4-84.7c0.8-2.2,2.2-8.8,0.8-9.5s-4.8-1.5-2.8-3.5s5.8-3.8,6.8-3.2s4.5,3.5,3.8,5.2s-1.2,2.2-2.2,3.8
				s-1,4.5,0.2,5.8s2.5,0.8,2.8,2.2"/>
			<path class="st1" d="M109.7-103.7c1-0.2,2.2,1.5,2.5,3s2.2,2.8,2.5,3.8s-2.2,5-2.8,6.2s-0.2,2.8,1,4s1.5,3.8,2.8,3
				s2.8-2.2,3.5-2.8"/>
			<path class="st1" d="M105.7-84.2c0.8-0.5,0.8-1,0.5-3s0.8-6.8,0-7.8s-1.5-3,0-2.5c0.8,0.3,2.5-0.1,2.8,1.4c0.2,1.2-1,4.2-1,4.9
				c0,1.5-0.4,5.6-0.4,6.9"/>
			<path class="st1" d="M64.7-84.5c-1.2,0-4-1.2-2-2c2.8-2,9.5-2.2,11.2,0.5c1,2,2.2,3.2,2.5,5"/>
			<path class="st1" d="M86.7-83.2c0.2-1.2,6-4,7-3.2s-1.2,0-2.2,1.8"/>
		</g>
	</g>
</pattern>
<path class="st2" d="M0,475l15,5.3c15,5.4,45,16,75,23s60,10.4,90,13.9s60,7.1,90,12.8s60,13.3,90,16s60,0.3,90-11.8
	c30-12.2,60-34.2,90-35.4c30-1.1,60,18.5,90,28.2s60,9.3,90-1.2s60-31.1,90-31.6s60,19.1,75,29l15,9.8v68h-15c-15,0-45,0-75,0
	s-60,0-90,0s-60,0-90,0s-60,0-90,0s-60,0-90,0s-60,0-90,0s-60,0-90,0s-60,0-90,0s-60,0-90,0s-60,0-75,0H0V475z"/>
<path class="st3" d="M0,538L0,538c8.8-12.9,21.6-22.4,36.5-26.9c14.9-4.5,35.4,22.3,55.1,26.9c30,7,60.6-21.5,90.9-7.9
	c27.6,12.4,61.2,5.8,88.3-8.4c35-18.3,57.5,16.3,86.2,35.5c25,16.8,59.3-16.6,89.3-28.7c27.7-1-0.7,57.6,29.3,56.4
	c30-1.1,120.1-113.8,144.7-94c21.4,17.2,111.6,72.1,141.6,61.6s29.5-64.6,51.2-43.9c22.5,21.4,25.8,49.9,41.3,58.5
	c12.5,6.9,33.1-38.4,38.8-25.3l6.8,15.4V601h-15c-15,0-45,0-75,0s-60,0-90,0s-60,0-90,0s-60,0-90,0s-60,0-90,0s-60,0-90,0
	s-60,0-90,0s-60,0-90,0s-60,0-90,0s-60,0-75,0H0V538z"/>
<path class="st4" d="M0,560.4L0,560.4c8.8-8.3,32-37.6,46.9-40.5c14.9-2.9,30.2,26.9,44.7,40.5c26.4,24.6,50.8,29,73.3-15.6
	c13-25.6,117.3,50.2,128.5,27.2c16.2-33.2,49.2-42.6,63.6-14.8c9.4,18.2,59.3,4.8,89.3-3c27.7-0.7,21,21.1,51,20.3
	c30-0.7,63.1-108.9,123-44.6c28.3,30.3,92,60.9,122,54.2c30-6.8,73.3-52.7,95-39.4c22.5,13.8,24.9,27.7,40.4,33.3
	c12.5,4.5,16.4-13.7,22.2-5.3l0,0V601h-15c-15,0-45,0-75,0s-60,0-90,0s-60,0-90,0s-60,0-90,0s-60,0-90,0s-60,0-90,0s-60,0-90,0
	s-60,0-90,0s-60,0-90,0s-60,0-75,0H0V560.4z"/>
<g>
	<path class="st5" d="M836.5,446.8c0.1,0.5,0.1,1,0.1,1.4c0,2.7-1.1,5.5-3.4,8.6c-1.8,2.5-4.1,4.7-6.7,6.6c-2.4,1.8-4.1,2.6-4.9,2.4
		c-1-0.1-2.7-0.8-5.1-2.1c-2.4-1.3-3.7-2.2-3.9-2.7c-0.1-0.1-0.1-0.3-0.1-0.4c0-0.2,0.1-0.4,0.2-0.7c0.1-0.3,0.2-0.5,0.2-0.7v-31.1
		c0-0.5,0.7-0.8,2.1-0.8c0.6,0,1.2,0.1,1.7,0.2c1.5-1,3.4-1.8,5.7-2.6c2.3-0.8,4.2-1.1,5.9-1.1c1,0,1.7,0.1,2.2,0.4
		c0.5,0.3,1,0.7,1.5,1.4c0.6,0.9,1,1.5,1.2,1.7c0.1,0.1,0.6,0.5,1.6,1.3c0.6,0.5,0.9,1,1.1,1.5c0.1,0.4,0.2,0.8,0.2,1.2
		c0,2.5-1.7,5.3-5,8.3C834.3,442.3,836.2,444.7,836.5,446.8z M828.1,431.2c-0.1-0.1-0.2-0.2-0.5-0.2c-0.7,0-1.9,0.4-3.5,1.2
		c-1.6,0.8-2.6,1.5-3.2,2.2v5c2-1.6,3.8-3.3,5.3-5C827.8,432.6,828.4,431.6,828.1,431.2z M829.9,445.4c-0.8,0-2.2,0.4-4.2,1.2
		c-2.1,0.9-3.7,1.7-4.7,2.5v8.9c2.1-0.6,4.1-2.3,6.1-5.3C829.2,449.8,830.1,447.4,829.9,445.4z"/>
	<path class="st5" d="M859,427.7c3.1,1.6,4.6,4.4,4.6,8.4c0,2.9-1.1,6.5-3.4,10.9c-2.5,4.9-5.1,7.4-7.7,7.4c-0.5,0-1.1-0.2-1.7-0.7
		c-0.6-0.5-1.2-1-1.8-1.5v8.2c0,0.4,0.1,0.9,0.2,1.4c0.2,0.8,0.4,1.3,0.4,1.6c0.1,0.3-0.1,0.8-0.4,1.6c-0.3,0.8-0.7,1.2-1.3,1.2
		c-0.6,0.1-1.8-0.3-3.7-1.2c-2-0.9-3.3-1.7-3.7-2.4c-0.3-0.4-0.3-1.1,0-2c0.2-0.7,0.3-1.2,0.3-1.6v-29.7c0-0.2-0.1-0.5-0.3-1.1
		c-0.2-0.5-0.3-0.9-0.3-1.1c0.2-1.5,0.8-2.3,1.7-2.3c0.2,0,0.8,0.2,1.9,0.6c1.1,0.4,2,0.6,2.7,0.6c1,0,2.2-0.2,3.7-0.8
		c1.5-0.5,2.6-0.8,3.2-0.8c0.4,0,0.8,0,1.2,0.1c0.7,0.2,1.5,0.7,2.3,1.4C857.9,426.9,858.6,427.5,859,427.7z M855,431.4
		c-0.7,0-1.8,0.4-3.1,1.2c-1.3,0.8-2.3,1.7-3,2.6v11.6c1.7-0.5,3.4-2.5,4.9-5.9c1.4-3.1,2.1-5.7,2.1-7.8
		C855.9,432,855.6,431.4,855,431.4z"/>
</g>
<path class="st6" d="M900,601h-15c-15,0-45,0-75,0s-60,0-90,0s-60,0-90,0s-60,0-90,0s-60,0-90,0s-60,0-90,0s-60,0-90,0s-60,0-90,0
	s-60,0-90,0s-60,0-75,0H0l0-55.2l15-8c15-8,45-23.9,75-23.5s60,17.1,90,25.6s60,8.8,90,1s60-23.8,90-22.9c30,1,60,18.8,90,28.7
	c30,9.8,60,11.8,90,9.6c30-2.2,60-8.4,90-13s60-7.5,90-10.4s60-5.6,90-11.3s60-14.3,75-18.7l15-4.3V601z"/>
<path class="st7" d="M900,601h-15c-15,0-45,0-75,0s-60,0-90,0s-60,0-90,0s-60,0-90,0s-60,0-90,0s-60,0-90,0s-60,0-90,0s-60,0-90,0
	s-60,0-90,0s-60,0-75,0H0l0-35.5L6.8,553c5.8-10.6,26.4,26.2,38.8,20.5c15.5-7,18.8-30.1,41.3-47.5c21.7-16.8,21.2,27.1,51.2,35.6
	s120.2-36,141.6-50c24.6-16,114.7,75.4,144.7,76.3c30,1,1.6-46.6,29.3-45.8c30,9.8,64.3,36.9,89.3,23.3
	c28.7-15.6,51.2-43.7,86.2-28.8c27.1,11.5,60.7,16.8,88.3,6.8c30.3-11,60.9,12.1,90.9,6.4c19.7-3.7,40.3-25.4,55.1-21.8
	c14.9,3.6,27.8,11.3,36.5,21.8l0,0V601z"/>
<path class="st8" d="M900,601h-15c-15,0-45,0-75,0s-60,0-90,0s-60,0-90,0s-60,0-90,0s-60,0-90,0s-60,0-90,0s-60,0-90,0s-60,0-90,0
	s-60,0-90,0s-60,0-75,0H0l0-22.9l0,0c5.8-6.8,9.7,7.9,22.2,4.3c15.5-4.5,17.9-15.8,40.4-27c21.7-10.8,65,26.5,95,32
	c30,5.5,93.8-19.3,122-43.9c59.9-52.2,93,35.6,123,36.2c30,0.6,23.3-17.1,51-16.5c30,6.3,80,17.2,89.3,2.4
	c14.3-22.6,47.4-15,63.6,12c11.2,18.7,115.5-42.9,128.5-22.1c22.6,36.2,46.9,32.7,73.3,12.7c14.6-11,29.9-35.2,44.7-32.8
	c14.9,2.3,38.2,26.1,46.9,32.8v0V601z"/>
</svg>
